<svg xmlns="http://www.w3.org/2000/svg" xmlns:xlink="http://www.w3.org/1999/xlink" width="471" zoomAndPan="magnify" viewBox="0 0 353.25 179.999997" height="240" preserveAspectRatio="xMidYMid meet" version="1.2"><defs><clipPath id="606ba99659"><path d="M 35 38.035156 L 102 38.035156 L 102 118 L 35 118 Z M 35 38.035156 "/></clipPath><clipPath id="bc167f65b5"><path d="M 7.019531 48 L 81 48 L 81 139.964844 L 7.019531 139.964844 Z M 7.019531 48 "/></clipPath><clipPath id="4db672b1d3"><path d="M 164.542969 92.546875 L 306.207031 92.546875 L 306.207031 143 L 164.542969 143 Z M 164.542969 92.546875 "/></clipPath></defs><g id="ab2b288bf0"><path style=" stroke:none;fill-rule:evenodd;fill:#4b3dfe;fill-opacity:1;" d="M 99.90625 61.738281 L 103.472656 61.738281 L 103.472656 65.304688 L 99.90625 65.304688 Z M 103.472656 66.816406 L 103.472656 70.382812 L 99.90625 70.382812 L 99.90625 66.816406 Z M 94.832031 61.738281 L 98.398438 61.738281 L 98.398438 65.304688 L 94.832031 65.304688 Z M 98.398438 66.816406 L 98.398438 70.382812 L 94.832031 70.382812 L 94.832031 66.816406 Z M 98.398438 66.816406 "/><path style=" stroke:none;fill-rule:evenodd;fill:#4b3dfe;fill-opacity:1;" d="M 100.996094 45.292969 L 130.867188 76.203125 L 104.242188 40.910156 Z M 100.996094 45.292969 "/><g clip-rule="nonzero" clip-path="url(#606ba99659)"><path style=" stroke:none;fill-rule:evenodd;fill:#4b3dfe;fill-opacity:1;" d="M 65.082031 117.664062 L 65.082031 94.855469 L 57.949219 94.855469 L 101.839844 38.035156 L 35.386719 55.84375 L 41.429688 69.886719 L 41.703125 70.53125 L 41.726562 70.582031 L 41.976562 71.199219 L 42.125 71.523438 L 42.273438 71.84375 L 42.519531 72.488281 L 42.542969 72.511719 L 42.816406 73.183594 L 42.941406 73.429688 L 43.113281 73.851562 L 61.21875 117.914062 Z M 65.082031 117.664062 "/></g><g clip-rule="nonzero" clip-path="url(#bc167f65b5)"><path style=" stroke:none;fill-rule:evenodd;fill:#2b2e3a;fill-opacity:1;" d="M 16.414062 75.78125 L 21.195312 73.652344 L 47.894531 130.941406 L 64.292969 126.605469 L 45.839844 134.582031 Z M 25.949219 58.667969 L 14.382812 60.824219 L 19.882812 70.730469 L 7.027344 73.304688 L 42.59375 139.90625 L 80.464844 121.679688 L 56.488281 117.34375 L 29.367188 52.328125 L 41.15625 49.898438 L 21.019531 48.265625 Z M 51.289062 125.492188 L 71.96875 122.394531 L 52.425781 120.785156 L 27.164062 61.316406 L 22.632812 62.53125 Z M 51.289062 125.492188 "/></g><g style="fill:#4b3dfe;fill-opacity:1;"><g transform="translate(78.800781, 99.069808)"><path style="stroke:none" d="M 11.609375 0.4375 C 10.335938 0.4375 9.242188 0.296875 8.328125 0.015625 C 7.410156 -0.265625 6.578125 -0.40625 5.828125 -0.40625 C 5.234375 -0.40625 4.804688 -0.257812 4.546875 0.03125 C 4.296875 0.332031 4.101562 0.578125 3.96875 0.765625 C 3.914062 0.898438 3.847656 0.898438 3.765625 0.765625 L 2.140625 -8.703125 C 2.140625 -8.773438 2.171875 -8.8125 2.234375 -8.8125 C 2.304688 -8.8125 2.359375 -8.773438 2.390625 -8.703125 C 2.929688 -6.753906 3.707031 -5.140625 4.71875 -3.859375 C 5.726562 -2.578125 6.828125 -1.613281 8.015625 -0.96875 C 9.203125 -0.320312 10.359375 0 11.484375 0 C 13.179688 0 14.539062 -0.390625 15.5625 -1.171875 C 16.59375 -1.953125 17.109375 -2.960938 17.109375 -4.203125 C 17.109375 -5.472656 16.707031 -6.390625 15.90625 -6.953125 C 15.113281 -7.523438 13.867188 -8.039062 12.171875 -8.5 L 8.328125 -9.59375 C 7.390625 -9.851562 6.476562 -10.207031 5.59375 -10.65625 C 4.71875 -11.101562 4.003906 -11.695312 3.453125 -12.4375 C 2.898438 -13.175781 2.625 -14.097656 2.625 -15.203125 C 2.625 -16.640625 2.992188 -17.757812 3.734375 -18.5625 C 4.484375 -19.375 5.410156 -19.953125 6.515625 -20.296875 C 7.617188 -20.648438 8.679688 -20.828125 9.703125 -20.828125 C 10.328125 -20.828125 10.96875 -20.753906 11.625 -20.609375 C 12.289062 -20.460938 12.921875 -20.3125 13.515625 -20.15625 C 14.109375 -20.007812 14.59375 -19.9375 14.96875 -19.9375 C 15.53125 -19.9375 15.925781 -20.078125 16.15625 -20.359375 C 16.382812 -20.648438 16.566406 -20.890625 16.703125 -21.078125 C 16.785156 -21.160156 16.851562 -21.160156 16.90625 -21.078125 L 18.484375 -11.890625 C 18.484375 -11.835938 18.445312 -11.800781 18.375 -11.78125 C 18.3125 -11.769531 18.269531 -11.804688 18.25 -11.890625 C 17.789062 -13.722656 17.066406 -15.265625 16.078125 -16.515625 C 15.097656 -17.773438 14.023438 -18.726562 12.859375 -19.375 C 11.703125 -20.019531 10.613281 -20.34375 9.59375 -20.34375 C 8.34375 -20.34375 7.28125 -20 6.40625 -19.3125 C 5.53125 -18.625 5.09375 -17.6875 5.09375 -16.5 C 5.09375 -15.375 5.414062 -14.539062 6.0625 -14 C 6.707031 -13.457031 7.84375 -12.972656 9.46875 -12.546875 L 12.65625 -11.65625 C 13.925781 -11.332031 15.078125 -10.921875 16.109375 -10.421875 C 17.148438 -9.921875 17.988281 -9.304688 18.625 -8.578125 C 19.257812 -7.847656 19.578125 -6.941406 19.578125 -5.859375 C 19.578125 -4.328125 19.171875 -3.09375 18.359375 -2.15625 C 17.554688 -1.226562 16.546875 -0.5625 15.328125 -0.15625 C 14.117188 0.238281 12.878906 0.4375 11.609375 0.4375 Z M 11.609375 0.4375 "/></g></g><g style="fill:#4b3dfe;fill-opacity:1;"><g transform="translate(104.405338, 99.069808)"><path style="stroke:none" d="M 13.1875 0 C 12.695312 0 12.226562 0.00390625 11.78125 0.015625 C 11.34375 0.0351562 10.769531 0.0546875 10.0625 0.078125 C 9.363281 0.109375 8.382812 0.125 7.125 0.125 C 6.90625 0.125 6.800781 0.0703125 6.8125 -0.03125 C 6.832031 -0.144531 6.9375 -0.203125 7.125 -0.203125 C 8.28125 -0.203125 9.222656 -0.257812 9.953125 -0.375 C 10.679688 -0.5 11.242188 -0.753906 11.640625 -1.140625 C 12.046875 -1.535156 12.320312 -2.148438 12.46875 -2.984375 C 12.625 -3.828125 12.703125 -4.960938 12.703125 -6.390625 L 12.703125 -27.875 L 10.640625 -27.875 C 9.160156 -27.875 7.832031 -27.539062 6.65625 -26.875 C 5.476562 -26.21875 4.414062 -25.113281 3.46875 -23.5625 C 2.53125 -22.007812 1.644531 -19.898438 0.8125 -17.234375 C 0.78125 -17.179688 0.722656 -17.15625 0.640625 -17.15625 C 0.566406 -17.15625 0.539062 -17.207031 0.5625 -17.3125 L 3.109375 -29.859375 C 3.140625 -29.960938 3.207031 -29.960938 3.3125 -29.859375 C 3.75 -29.179688 4.40625 -28.753906 5.28125 -28.578125 C 6.15625 -28.398438 7.414062 -28.3125 9.0625 -28.3125 L 19.828125 -28.3125 C 21.390625 -28.3125 22.632812 -28.398438 23.5625 -28.578125 C 24.488281 -28.753906 25.15625 -29.179688 25.5625 -29.859375 C 25.695312 -29.992188 25.78125 -29.992188 25.8125 -29.859375 L 28.359375 -17.3125 C 28.378906 -17.207031 28.359375 -17.15625 28.296875 -17.15625 C 28.234375 -17.15625 28.171875 -17.179688 28.109375 -17.234375 C 27.304688 -19.898438 26.425781 -22.007812 25.46875 -23.5625 C 24.507812 -25.113281 23.441406 -26.21875 22.265625 -26.875 C 21.097656 -27.539062 19.757812 -27.875 18.25 -27.875 L 16.21875 -27.875 L 16.21875 -6.390625 C 16.21875 -4.960938 16.289062 -3.828125 16.4375 -2.984375 C 16.59375 -2.148438 16.867188 -1.535156 17.265625 -1.140625 C 17.671875 -0.753906 18.238281 -0.5 18.96875 -0.375 C 19.695312 -0.257812 20.640625 -0.203125 21.796875 -0.203125 C 21.992188 -0.203125 22.097656 -0.144531 22.109375 -0.03125 C 22.117188 0.0703125 22.015625 0.125 21.796875 0.125 C 20.535156 0.125 19.550781 0.109375 18.84375 0.078125 C 18.144531 0.0546875 17.578125 0.0351562 17.140625 0.015625 C 16.710938 0.00390625 16.242188 0 15.734375 0 Z M 13.1875 0 "/></g></g><g style="fill:#4b3dfe;fill-opacity:1;"><g transform="translate(137.492866, 99.069808)"><path style="stroke:none" d="M 31.390625 -0.15625 C 31.523438 -0.15625 31.59375 -0.109375 31.59375 -0.015625 C 31.59375 0.078125 31.523438 0.125 31.390625 0.125 C 30.203125 0.125 29.363281 0.101562 28.875 0.0625 C 28.394531 0.0195312 27.925781 0 27.46875 0 L 25.640625 0 C 24.890625 -0.164062 24.257812 -0.671875 23.75 -1.515625 C 23.238281 -2.367188 22.722656 -3.398438 22.203125 -4.609375 L 21.15625 -7.125 C 20.507812 -8.738281 19.671875 -9.96875 18.640625 -10.8125 C 17.617188 -11.664062 16.359375 -12.238281 14.859375 -12.53125 C 13.367188 -12.832031 11.582031 -12.984375 9.5 -12.984375 L 8.859375 -12.984375 L 8.859375 -6.875 C 8.859375 -5.34375 8.9375 -4.128906 9.09375 -3.234375 C 9.257812 -2.347656 9.546875 -1.6875 9.953125 -1.25 C 10.359375 -0.820312 10.9375 -0.539062 11.6875 -0.40625 C 12.445312 -0.269531 13.40625 -0.203125 14.5625 -0.203125 C 14.75 -0.203125 14.847656 -0.144531 14.859375 -0.03125 C 14.878906 0.0703125 14.78125 0.125 14.5625 0.125 C 13.269531 0.125 12.265625 0.109375 11.546875 0.078125 C 10.835938 0.0546875 10.257812 0.0351562 9.8125 0.015625 C 9.363281 0.00390625 8.882812 0 8.375 0 L 5.703125 0 C 5.347656 0 5.015625 0.00390625 4.703125 0.015625 C 4.398438 0.0351562 4 0.0546875 3.5 0.078125 C 3 0.109375 2.304688 0.125 1.421875 0.125 C 1.285156 0.125 1.222656 0.078125 1.234375 -0.015625 C 1.242188 -0.109375 1.304688 -0.15625 1.421875 -0.15625 C 2.492188 -0.1875 3.3125 -0.316406 3.875 -0.546875 C 4.445312 -0.773438 4.832031 -1.320312 5.03125 -2.1875 C 5.238281 -3.050781 5.34375 -4.410156 5.34375 -6.265625 L 5.34375 -22.046875 C 5.34375 -23.910156 5.238281 -25.269531 5.03125 -26.125 C 4.832031 -26.988281 4.445312 -27.539062 3.875 -27.78125 C 3.3125 -28.03125 2.492188 -28.15625 1.421875 -28.15625 C 1.304688 -28.15625 1.242188 -28.203125 1.234375 -28.296875 C 1.222656 -28.390625 1.285156 -28.4375 1.421875 -28.4375 C 2.304688 -28.4375 3 -28.421875 3.5 -28.390625 C 4 -28.367188 4.398438 -28.347656 4.703125 -28.328125 C 5.015625 -28.316406 5.347656 -28.3125 5.703125 -28.3125 L 13.828125 -28.3125 C 17.960938 -28.3125 21.128906 -27.710938 23.328125 -26.515625 C 25.523438 -25.316406 26.625 -23.4375 26.625 -20.875 C 26.625 -18.738281 25.648438 -17.03125 23.703125 -15.75 C 21.765625 -14.46875 19.109375 -13.640625 15.734375 -13.265625 C 17.648438 -13.128906 19.351562 -12.75 20.84375 -12.125 C 22.34375 -11.507812 23.472656 -10.335938 24.234375 -8.609375 L 25.40625 -6.03125 C 26.082031 -4.601562 26.679688 -3.457031 27.203125 -2.59375 C 27.734375 -1.726562 28.320312 -1.113281 28.96875 -0.75 C 29.613281 -0.382812 30.421875 -0.1875 31.390625 -0.15625 Z M 9.21875 -27.625 C 9.195312 -27.46875 9.148438 -27.242188 9.078125 -26.953125 C 9.015625 -26.671875 8.960938 -26.226562 8.921875 -25.625 C 8.878906 -25.019531 8.859375 -24.148438 8.859375 -23.015625 L 8.859375 -13.4375 L 10.3125 -13.4375 C 12.789062 -13.4375 14.945312 -13.710938 16.78125 -14.265625 C 18.613281 -14.816406 20.035156 -15.648438 21.046875 -16.765625 C 22.066406 -17.890625 22.578125 -19.273438 22.578125 -20.921875 C 22.578125 -23.398438 21.773438 -25.132812 20.171875 -26.125 C 18.566406 -27.125 16.222656 -27.625 13.140625 -27.625 Z M 9.21875 -27.625 "/></g></g><g style="fill:#4b3dfe;fill-opacity:1;"><g transform="translate(173.007303, 99.069808)"><path style="stroke:none" d="M 28.15625 -10.921875 C 28.1875 -11.003906 28.25 -11.035156 28.34375 -11.015625 C 28.4375 -11.003906 28.484375 -10.972656 28.484375 -10.921875 L 25.6875 1.53125 C 25.65625 1.644531 25.570312 1.644531 25.4375 1.53125 C 25.28125 1.320312 25.0625 1.09375 24.78125 0.84375 C 24.5 0.601562 24.050781 0.398438 23.4375 0.234375 C 22.832031 0.078125 21.953125 0 20.796875 0 L 5.703125 0 C 5.347656 0 5.015625 0.00390625 4.703125 0.015625 C 4.398438 0.0351562 4 0.0546875 3.5 0.078125 C 3 0.109375 2.304688 0.125 1.421875 0.125 C 1.285156 0.125 1.222656 0.078125 1.234375 -0.015625 C 1.242188 -0.109375 1.304688 -0.15625 1.421875 -0.15625 C 2.492188 -0.1875 3.3125 -0.316406 3.875 -0.546875 C 4.445312 -0.773438 4.832031 -1.320312 5.03125 -2.1875 C 5.238281 -3.050781 5.34375 -4.410156 5.34375 -6.265625 L 5.34375 -22.046875 C 5.34375 -23.910156 5.238281 -25.269531 5.03125 -26.125 C 4.832031 -26.988281 4.445312 -27.539062 3.875 -27.78125 C 3.3125 -28.03125 2.492188 -28.15625 1.421875 -28.15625 C 1.304688 -28.15625 1.242188 -28.203125 1.234375 -28.296875 C 1.222656 -28.390625 1.285156 -28.4375 1.421875 -28.4375 C 2.304688 -28.4375 3 -28.421875 3.5 -28.390625 C 4 -28.367188 4.398438 -28.347656 4.703125 -28.328125 C 5.015625 -28.316406 5.347656 -28.3125 5.703125 -28.3125 L 18.890625 -28.3125 C 20.023438 -28.3125 20.898438 -28.382812 21.515625 -28.53125 C 22.140625 -28.6875 22.597656 -28.878906 22.890625 -29.109375 C 23.191406 -29.335938 23.421875 -29.585938 23.578125 -29.859375 C 23.640625 -29.910156 23.6875 -29.9375 23.71875 -29.9375 C 23.757812 -29.9375 23.78125 -29.910156 23.78125 -29.859375 L 26.453125 -18.046875 C 26.453125 -17.960938 26.410156 -17.910156 26.328125 -17.890625 C 26.253906 -17.878906 26.1875 -17.929688 26.125 -18.046875 C 25.269531 -20.609375 24.304688 -22.59375 23.234375 -24 C 22.171875 -25.414062 20.976562 -26.414062 19.65625 -27 C 18.332031 -27.582031 16.835938 -27.875 15.171875 -27.875 L 8.859375 -27.875 L 8.859375 -14.765625 L 14.6875 -14.765625 C 17.457031 -14.765625 18.84375 -16.125 18.84375 -18.84375 C 18.84375 -18.976562 18.890625 -19.046875 18.984375 -19.046875 C 19.085938 -19.046875 19.140625 -18.976562 19.140625 -18.84375 L 19.140625 -10.15625 C 19.140625 -10.039062 19.085938 -9.984375 18.984375 -9.984375 C 18.890625 -9.984375 18.84375 -10.039062 18.84375 -10.15625 C 18.84375 -11.71875 18.503906 -12.796875 17.828125 -13.390625 C 17.160156 -13.984375 16.113281 -14.28125 14.6875 -14.28125 L 8.859375 -14.28125 L 8.859375 -0.4375 L 15.984375 -0.4375 C 17.410156 -0.4375 18.707031 -0.570312 19.875 -0.84375 C 21.050781 -1.113281 22.125 -1.617188 23.09375 -2.359375 C 24.070312 -3.109375 24.96875 -4.171875 25.78125 -5.546875 C 26.601562 -6.921875 27.394531 -8.710938 28.15625 -10.921875 Z M 28.15625 -10.921875 "/></g></g><g style="fill:#4b3dfe;fill-opacity:1;"><g transform="translate(206.701558, 99.069808)"><path style="stroke:none" d="M 33.328125 -28.4375 C 33.460938 -28.4375 33.53125 -28.390625 33.53125 -28.296875 C 33.53125 -28.203125 33.460938 -28.15625 33.328125 -28.15625 C 31.847656 -28.15625 30.726562 -27.5625 29.96875 -26.375 C 29.21875 -25.1875 28.84375 -23.742188 28.84375 -22.046875 L 28.84375 -0.046875 C 28.84375 0.0351562 28.800781 0.0820312 28.71875 0.09375 C 28.632812 0.113281 28.566406 0.0820312 28.515625 0 L 6.265625 -24.71875 L 6.265625 -7.125 C 6.265625 -5.820312 6.445312 -4.648438 6.8125 -3.609375 C 7.175781 -2.578125 7.722656 -1.75 8.453125 -1.125 C 9.179688 -0.507812 10.097656 -0.203125 11.203125 -0.203125 C 11.335938 -0.203125 11.40625 -0.144531 11.40625 -0.03125 C 11.40625 0.0703125 11.335938 0.125 11.203125 0.125 C 9.960938 0.125 8.914062 0.101562 8.0625 0.0625 C 7.21875 0.0195312 6.539062 0 6.03125 0 C 5.59375 0 4.984375 0.0195312 4.203125 0.0625 C 3.421875 0.101562 2.460938 0.125 1.328125 0.125 C 1.222656 0.125 1.171875 0.078125 1.171875 -0.015625 C 1.171875 -0.109375 1.222656 -0.15625 1.328125 -0.15625 C 2.835938 -0.15625 3.960938 -0.75 4.703125 -1.9375 C 5.453125 -3.125 5.828125 -4.566406 5.828125 -6.265625 L 5.828125 -20.953125 C 5.828125 -22.597656 5.769531 -23.898438 5.65625 -24.859375 C 5.550781 -25.816406 5.347656 -26.523438 5.046875 -26.984375 C 4.753906 -27.441406 4.335938 -27.742188 3.796875 -27.890625 C 3.265625 -28.035156 2.566406 -28.109375 1.703125 -28.109375 C 1.585938 -28.109375 1.523438 -28.171875 1.515625 -28.296875 C 1.503906 -28.421875 1.566406 -28.484375 1.703125 -28.484375 C 2.640625 -28.484375 3.363281 -28.46875 3.875 -28.4375 C 4.394531 -28.40625 4.820312 -28.375 5.15625 -28.34375 C 5.488281 -28.320312 5.832031 -28.3125 6.1875 -28.3125 L 7.84375 -28.3125 L 28.390625 -4.890625 L 28.390625 -21.203125 C 28.390625 -22.492188 28.207031 -23.664062 27.84375 -24.71875 C 27.488281 -25.769531 26.945312 -26.597656 26.21875 -27.203125 C 25.488281 -27.804688 24.570312 -28.109375 23.46875 -28.109375 C 23.351562 -28.109375 23.296875 -28.160156 23.296875 -28.265625 C 23.296875 -28.378906 23.351562 -28.4375 23.46875 -28.4375 C 24.726562 -28.4375 25.773438 -28.414062 26.609375 -28.375 C 27.453125 -28.332031 28.128906 -28.3125 28.640625 -28.3125 C 29.097656 -28.3125 29.710938 -28.332031 30.484375 -28.375 C 31.253906 -28.414062 32.203125 -28.4375 33.328125 -28.4375 Z M 33.328125 -28.4375 "/></g></g><g style="fill:#4b3dfe;fill-opacity:1;"><g transform="translate(244.723799, 99.069808)"><path style="stroke:none" d="M 13.1875 0 C 12.695312 0 12.226562 0.00390625 11.78125 0.015625 C 11.34375 0.0351562 10.769531 0.0546875 10.0625 0.078125 C 9.363281 0.109375 8.382812 0.125 7.125 0.125 C 6.90625 0.125 6.800781 0.0703125 6.8125 -0.03125 C 6.832031 -0.144531 6.9375 -0.203125 7.125 -0.203125 C 8.28125 -0.203125 9.222656 -0.257812 9.953125 -0.375 C 10.679688 -0.5 11.242188 -0.753906 11.640625 -1.140625 C 12.046875 -1.535156 12.320312 -2.148438 12.46875 -2.984375 C 12.625 -3.828125 12.703125 -4.960938 12.703125 -6.390625 L 12.703125 -27.875 L 10.640625 -27.875 C 9.160156 -27.875 7.832031 -27.539062 6.65625 -26.875 C 5.476562 -26.21875 4.414062 -25.113281 3.46875 -23.5625 C 2.53125 -22.007812 1.644531 -19.898438 0.8125 -17.234375 C 0.78125 -17.179688 0.722656 -17.15625 0.640625 -17.15625 C 0.566406 -17.15625 0.539062 -17.207031 0.5625 -17.3125 L 3.109375 -29.859375 C 3.140625 -29.960938 3.207031 -29.960938 3.3125 -29.859375 C 3.75 -29.179688 4.40625 -28.753906 5.28125 -28.578125 C 6.15625 -28.398438 7.414062 -28.3125 9.0625 -28.3125 L 19.828125 -28.3125 C 21.390625 -28.3125 22.632812 -28.398438 23.5625 -28.578125 C 24.488281 -28.753906 25.15625 -29.179688 25.5625 -29.859375 C 25.695312 -29.992188 25.78125 -29.992188 25.8125 -29.859375 L 28.359375 -17.3125 C 28.378906 -17.207031 28.359375 -17.15625 28.296875 -17.15625 C 28.234375 -17.15625 28.171875 -17.179688 28.109375 -17.234375 C 27.304688 -19.898438 26.425781 -22.007812 25.46875 -23.5625 C 24.507812 -25.113281 23.441406 -26.21875 22.265625 -26.875 C 21.097656 -27.539062 19.757812 -27.875 18.25 -27.875 L 16.21875 -27.875 L 16.21875 -6.390625 C 16.21875 -4.960938 16.289062 -3.828125 16.4375 -2.984375 C 16.59375 -2.148438 16.867188 -1.535156 17.265625 -1.140625 C 17.671875 -0.753906 18.238281 -0.5 18.96875 -0.375 C 19.695312 -0.257812 20.640625 -0.203125 21.796875 -0.203125 C 21.992188 -0.203125 22.097656 -0.144531 22.109375 -0.03125 C 22.117188 0.0703125 22.015625 0.125 21.796875 0.125 C 20.535156 0.125 19.550781 0.109375 18.84375 0.078125 C 18.144531 0.0546875 17.578125 0.0351562 17.140625 0.015625 C 16.710938 0.00390625 16.242188 0 15.734375 0 Z M 13.1875 0 "/></g></g><g style="fill:#4b3dfe;fill-opacity:1;"><g transform="translate(98.939144, 118.677123)"><path style="stroke:none" d="M 0.953125 0 L 0.953125 -7.921875 L 4.328125 -7.921875 C 4.929688 -7.921875 5.457031 -7.8125 5.90625 -7.59375 C 6.351562 -7.375 6.695312 -7.0625 6.9375 -6.65625 C 7.175781 -6.25 7.296875 -5.757812 7.296875 -5.1875 C 7.296875 -4.613281 7.160156 -4.113281 6.890625 -3.6875 C 6.628906 -3.269531 6.265625 -2.957031 5.796875 -2.75 L 7.4375 0 L 5.34375 0 L 3.9375 -2.46875 L 2.75 -2.46875 L 2.75 0 Z M 2.71875 -3.984375 L 4.09375 -3.984375 C 4.539062 -3.984375 4.878906 -4.085938 5.109375 -4.296875 C 5.347656 -4.503906 5.46875 -4.800781 5.46875 -5.1875 C 5.46875 -5.570312 5.347656 -5.863281 5.109375 -6.0625 C 4.878906 -6.269531 4.539062 -6.375 4.09375 -6.375 L 2.71875 -6.375 Z M 2.71875 -3.984375 "/></g></g><g style="fill:#4b3dfe;fill-opacity:1;"><g transform="translate(112.614588, 118.677123)"><path style="stroke:none" d="M 0.953125 0 L 0.953125 -7.921875 L 6.15625 -7.921875 L 6.15625 -6.40625 L 2.734375 -6.40625 L 2.734375 -4.765625 L 5.84375 -4.765625 L 5.84375 -3.265625 L 2.734375 -3.265625 L 2.734375 -1.53125 L 6.28125 -1.53125 L 6.28125 0 Z M 0.953125 0 "/></g></g><g style="fill:#4b3dfe;fill-opacity:1;"><g transform="translate(125.181781, 118.677123)"><path style="stroke:none" d="M 0.953125 0 L 0.953125 -7.921875 L 2.484375 -7.921875 L 5.96875 -3.09375 L 5.96875 -7.921875 L 7.765625 -7.921875 L 7.765625 0 L 6.234375 0 L 2.734375 -4.859375 L 2.734375 0 Z M 0.953125 0 "/></g></g><g style="fill:#4b3dfe;fill-opacity:1;"><g transform="translate(139.603596, 118.677123)"><path style="stroke:none" d="M 2.84375 0 L 2.84375 -6.234375 L 0.34375 -6.234375 L 0.34375 -7.921875 L 7.15625 -7.921875 L 7.15625 -6.234375 L 4.65625 -6.234375 L 4.65625 0 Z M 2.84375 0 "/></g></g><g style="fill:#4b3dfe;fill-opacity:1;"><g transform="translate(152.815388, 118.677123)"><path style="stroke:none" d=""/></g></g><g style="fill:#4b3dfe;fill-opacity:1;"><g transform="translate(161.187062, 118.677123)"><path style="stroke:none" d="M 3.703125 0.15625 C 3.046875 0.15625 2.476562 0.046875 2 -0.171875 C 1.519531 -0.390625 1.148438 -0.695312 0.890625 -1.09375 C 0.628906 -1.5 0.5 -1.972656 0.5 -2.515625 L 2.265625 -2.515625 C 2.265625 -2.140625 2.394531 -1.847656 2.65625 -1.640625 C 2.914062 -1.429688 3.265625 -1.328125 3.703125 -1.328125 C 4.078125 -1.328125 4.375 -1.398438 4.59375 -1.546875 C 4.8125 -1.691406 4.921875 -1.894531 4.921875 -2.15625 C 4.921875 -2.4375 4.785156 -2.660156 4.515625 -2.828125 C 4.253906 -3.003906 3.847656 -3.15625 3.296875 -3.28125 C 2.367188 -3.476562 1.679688 -3.773438 1.234375 -4.171875 C 0.785156 -4.578125 0.5625 -5.097656 0.5625 -5.734375 C 0.5625 -6.460938 0.828125 -7.035156 1.359375 -7.453125 C 1.890625 -7.867188 2.609375 -8.078125 3.515625 -8.078125 C 4.140625 -8.078125 4.679688 -7.96875 5.140625 -7.75 C 5.609375 -7.539062 5.96875 -7.238281 6.21875 -6.84375 C 6.46875 -6.457031 6.59375 -6 6.59375 -5.46875 L 4.859375 -5.46875 C 4.859375 -5.820312 4.738281 -6.097656 4.5 -6.296875 C 4.269531 -6.503906 3.953125 -6.609375 3.546875 -6.609375 C 3.160156 -6.609375 2.859375 -6.535156 2.640625 -6.390625 C 2.421875 -6.242188 2.3125 -6.035156 2.3125 -5.765625 C 2.3125 -5.523438 2.429688 -5.320312 2.671875 -5.15625 C 2.921875 -4.988281 3.347656 -4.832031 3.953125 -4.6875 C 4.941406 -4.457031 5.65625 -4.144531 6.09375 -3.75 C 6.53125 -3.363281 6.75 -2.859375 6.75 -2.234375 C 6.75 -1.484375 6.476562 -0.894531 5.9375 -0.46875 C 5.394531 -0.0507812 4.648438 0.15625 3.703125 0.15625 Z M 3.703125 0.15625 "/></g></g><g style="fill:#4b3dfe;fill-opacity:1;"><g transform="translate(174.150058, 118.677123)"><path style="stroke:none" d="M 0.953125 0 L 0.953125 -7.921875 L 2.484375 -7.921875 L 5.296875 -3.8125 L 8.09375 -7.921875 L 9.609375 -7.921875 L 9.609375 0 L 7.828125 0 L 7.828125 -4.765625 L 5.90625 -1.953125 L 4.65625 -1.953125 L 2.734375 -4.78125 L 2.734375 0 Z M 0.953125 0 "/></g></g><g style="fill:#4b3dfe;fill-opacity:1;"><g transform="translate(190.426502, 118.677123)"><path style="stroke:none" d="M 0.109375 0 L 3.25 -7.921875 L 5.015625 -7.921875 L 8.15625 0 L 6.234375 0 L 5.703125 -1.375 L 2.5625 -1.375 L 2.03125 0 Z M 3.015625 -2.78125 L 5.25 -2.78125 L 4.125 -5.671875 Z M 3.015625 -2.78125 "/></g></g><g style="fill:#4b3dfe;fill-opacity:1;"><g transform="translate(204.39597, 118.677123)"><path style="stroke:none" d="M 0.953125 0 L 0.953125 -7.921875 L 4.328125 -7.921875 C 4.929688 -7.921875 5.457031 -7.8125 5.90625 -7.59375 C 6.351562 -7.375 6.695312 -7.0625 6.9375 -6.65625 C 7.175781 -6.25 7.296875 -5.757812 7.296875 -5.1875 C 7.296875 -4.613281 7.160156 -4.113281 6.890625 -3.6875 C 6.628906 -3.269531 6.265625 -2.957031 5.796875 -2.75 L 7.4375 0 L 5.34375 0 L 3.9375 -2.46875 L 2.75 -2.46875 L 2.75 0 Z M 2.71875 -3.984375 L 4.09375 -3.984375 C 4.539062 -3.984375 4.878906 -4.085938 5.109375 -4.296875 C 5.347656 -4.503906 5.46875 -4.800781 5.46875 -5.1875 C 5.46875 -5.570312 5.347656 -5.863281 5.109375 -6.0625 C 4.878906 -6.269531 4.539062 -6.375 4.09375 -6.375 L 2.71875 -6.375 Z M 2.71875 -3.984375 "/></g></g><g style="fill:#4b3dfe;fill-opacity:1;"><g transform="translate(218.071415, 118.677123)"><path style="stroke:none" d="M 2.84375 0 L 2.84375 -6.234375 L 0.34375 -6.234375 L 0.34375 -7.921875 L 7.15625 -7.921875 L 7.15625 -6.234375 L 4.65625 -6.234375 L 4.65625 0 Z M 2.84375 0 "/></g></g><g style="fill:#4b3dfe;fill-opacity:1;"><g transform="translate(231.283206, 118.677123)"><path style="stroke:none" d="M 0.953125 0 L 0.953125 -7.921875 L 6.15625 -7.921875 L 6.15625 -6.40625 L 2.734375 -6.40625 L 2.734375 -4.765625 L 5.84375 -4.765625 L 5.84375 -3.265625 L 2.734375 -3.265625 L 2.734375 -1.53125 L 6.28125 -1.53125 L 6.28125 0 Z M 0.953125 0 "/></g></g><g style="fill:#4b3dfe;fill-opacity:1;"><g transform="translate(243.850407, 118.677123)"><path style="stroke:none" d="M 0.953125 0 L 0.953125 -7.921875 L 4.328125 -7.921875 C 4.929688 -7.921875 5.457031 -7.8125 5.90625 -7.59375 C 6.351562 -7.375 6.695312 -7.0625 6.9375 -6.65625 C 7.175781 -6.25 7.296875 -5.757812 7.296875 -5.1875 C 7.296875 -4.613281 7.160156 -4.113281 6.890625 -3.6875 C 6.628906 -3.269531 6.265625 -2.957031 5.796875 -2.75 L 7.4375 0 L 5.34375 0 L 3.9375 -2.46875 L 2.75 -2.46875 L 2.75 0 Z M 2.71875 -3.984375 L 4.09375 -3.984375 C 4.539062 -3.984375 4.878906 -4.085938 5.109375 -4.296875 C 5.347656 -4.503906 5.46875 -4.800781 5.46875 -5.1875 C 5.46875 -5.570312 5.347656 -5.863281 5.109375 -6.0625 C 4.878906 -6.269531 4.539062 -6.375 4.09375 -6.375 L 2.71875 -6.375 Z M 2.71875 -3.984375 "/></g></g><g style="fill:#4b3dfe;fill-opacity:1;"><g transform="translate(257.525836, 118.677123)"><path style="stroke:none" d="M 0.921875 -2.65625 L 0.84375 -7.921875 L 2.6875 -7.921875 L 2.609375 -2.65625 Z M 0.71875 -0.890625 C 0.71875 -1.179688 0.8125 -1.425781 1 -1.625 C 1.195312 -1.820312 1.453125 -1.921875 1.765625 -1.921875 C 2.078125 -1.921875 2.328125 -1.820312 2.515625 -1.625 C 2.710938 -1.425781 2.8125 -1.179688 2.8125 -0.890625 C 2.8125 -0.597656 2.710938 -0.351562 2.515625 -0.15625 C 2.328125 0.03125 2.078125 0.125 1.765625 0.125 C 1.453125 0.125 1.195312 0.03125 1 -0.15625 C 0.8125 -0.351562 0.71875 -0.597656 0.71875 -0.890625 Z M 0.71875 -0.890625 "/></g></g><path style=" stroke:none;fill-rule:evenodd;fill:#132d4c;fill-opacity:1;" d="M 173.578125 145.785156 C 173.476562 142.339844 173.953125 143.109375 170.933594 141.453125 C 174.378906 141.351562 173.59375 141.828125 175.265625 138.8125 C 175.367188 142.050781 174.957031 141.558594 177.394531 142.871094 C 217.265625 148.445312 255.378906 145.445312 291.007812 130.324219 C 256.128906 148.664062 217.878906 151.121094 177.414062 143.160156 C 174.550781 143.210938 175.164062 142.921875 173.578125 145.785156 Z M 170.578125 135.625 C 170.320312 133.5625 170.664062 134.003906 168.753906 133.152344 C 170.816406 132.914062 170.371094 133.238281 171.226562 131.328125 C 171.464844 133.410156 171.140625 132.964844 173.050781 133.800781 C 170.988281 134.058594 171.414062 133.734375 170.578125 135.625 Z M 170.578125 135.625 "/><g clip-rule="nonzero" clip-path="url(#4db672b1d3)"><path style=" stroke:none;fill-rule:evenodd;fill:#3c31cb;fill-opacity:1;" d="M 297.65625 103.460938 C 298.898438 105.335938 299.546875 107.261719 299.546875 109.253906 C 299.546875 125.003906 258.738281 137.753906 208.417969 137.753906 C 199.863281 137.753906 191.578125 137.398438 183.738281 136.699219 C 179.238281 134.738281 180.019531 135.675781 179.40625 130.476562 C 177.226562 135.402344 178.367188 134.566406 173.015625 135.199219 C 177.941406 137.378906 177.089844 136.238281 177.738281 141.589844 C 179.867188 136.75 178.8125 137.464844 183.804688 136.902344 C 194.269531 138.265625 205.742188 139.015625 217.777344 139.015625 C 266.699219 139.015625 306.363281 126.609375 306.363281 111.316406 C 306.363281 102.335938 293.785156 96.710938 286.371094 94.492188 C 283.335938 93.574219 280.214844 92.941406 276.960938 92.617188 C 283.574219 93.726562 293.613281 97.339844 297.65625 103.460938 Z M 167.152344 142.070312 C 166.808594 139.136719 167.269531 139.765625 164.558594 138.574219 C 167.492188 138.214844 166.878906 138.675781 168.070312 135.984375 C 168.414062 138.914062 167.953125 138.285156 170.664062 139.476562 C 167.730469 139.835938 168.34375 139.375 167.152344 142.070312 Z M 167.152344 142.070312 "/></g></g></svg>