<svg width="13" height="12" viewBox="0 0 13 12" fill="none" xmlns="http://www.w3.org/2000/svg">
<path d="M11.9484 12C10.5595 12 9.18733 11.6973 7.83177 11.092C6.47622 10.4867 5.24288 9.62822 4.13177 8.51667C3.02066 7.40511 2.16244 6.17178 1.5571 4.81667C0.951771 3.46156 0.648882 2.08933 0.648438 0.7C0.648438 0.5 0.715104 0.333333 0.848437 0.2C0.981771 0.0666666 1.14844 0 1.34844 0H4.04844C4.20399 0 4.34288 0.0528888 4.4651 0.158667C4.58733 0.264444 4.65955 0.389333 4.68177 0.533333L5.1151 2.86667C5.13733 3.04444 5.13177 3.19444 5.09844 3.31667C5.0651 3.43889 5.00399 3.54444 4.9151 3.63333L3.29844 5.26667C3.52066 5.67778 3.78444 6.07489 4.08977 6.458C4.3951 6.84111 4.73133 7.21067 5.09844 7.56667C5.44288 7.91111 5.80399 8.23067 6.18177 8.52533C6.55955 8.82 6.95955 9.08933 7.38177 9.33333L8.94844 7.76667C9.04844 7.66667 9.1791 7.59178 9.34044 7.542C9.50177 7.49222 9.65999 7.47822 9.8151 7.5L12.1151 7.96667C12.2707 8.01111 12.3984 8.09178 12.4984 8.20867C12.5984 8.32556 12.6484 8.456 12.6484 8.6V11.3C12.6484 11.5 12.5818 11.6667 12.4484 11.8C12.3151 11.9333 12.1484 12 11.9484 12Z" fill="white"/>
</svg>
