<svg width="64" height="64" viewBox="0 0 64 64" fill="none" xmlns="http://www.w3.org/2000/svg">
<rect width="64" height="64" rx="32" fill="#4B3DFE"/>
<path d="M27.3346 41.3337H26.668C21.3346 41.3337 18.668 40.0003 18.668 33.3337V26.667C18.668 21.3337 21.3346 18.667 26.668 18.667H37.3346C42.668 18.667 45.3346 21.3337 45.3346 26.667V33.3337C45.3346 38.667 42.668 41.3337 37.3346 41.3337H36.668C36.2546 41.3337 35.8546 41.5337 35.6013 41.867L33.6013 44.5337C32.7213 45.707 31.2813 45.707 30.4013 44.5337L28.4013 41.867C28.188 41.5737 27.6946 41.3337 27.3346 41.3337Z" stroke="white" stroke-width="1.5" stroke-miterlimit="10" stroke-linecap="round" stroke-linejoin="round"/>
<path d="M25.332 26.667H38.6654" stroke="white" stroke-width="1.5" stroke-linecap="round" stroke-linejoin="round"/>
<path d="M25.332 33.333H33.332" stroke="white" stroke-width="1.5" stroke-linecap="round" stroke-linejoin="round"/>
</svg>
