<svg width="24" height="12" viewBox="0 0 24 12" fill="none" xmlns="http://www.w3.org/2000/svg">
<path d="M1.86308 11.6863L11.2331 2.46427C11.4375 2.26201 11.7135 2.14857 12.0011 2.14857C12.2887 2.14857 12.5646 2.26201 12.7691 2.46427L22.1391 11.6843C22.3448 11.8864 22.6217 11.9997 22.9101 11.9997C23.1985 11.9997 23.4754 11.8864 23.6811 11.6843C23.7824 11.5855 23.8629 11.4675 23.9179 11.3371C23.9728 11.2068 24.0011 11.0667 24.0011 10.9253C24.0011 10.7838 23.9728 10.6438 23.9179 10.5134C23.8629 10.3831 23.7824 10.265 23.6811 10.1663L14.3131 0.946267C13.696 0.340415 12.8658 0.000976562 12.0011 0.000976562C11.1363 0.000976562 10.3061 0.340415 9.68908 0.946267L0.321082 10.1663C0.219478 10.2651 0.138714 10.3832 0.0835643 10.5137C0.0284148 10.6443 0 10.7846 0 10.9263C0 11.068 0.0284148 11.2082 0.0835643 11.3388C0.138714 11.4693 0.219478 11.5875 0.321082 11.6863C0.526793 11.8884 0.803669 12.0017 1.09208 12.0017C1.3805 12.0017 1.65737 11.8884 1.86308 11.6863Z" fill="#1E1E1E"/>
</svg>
