<svg width="20" height="20" viewBox="0 0 20 20" fill="none" xmlns="http://www.w3.org/2000/svg">
<path d="M6.5013 1.66699H13.5013C16.168 1.66699 18.3346 3.83366 18.3346 6.50033V13.5003C18.3346 14.7822 17.8254 16.0116 16.919 16.918C16.0126 17.8244 14.7832 18.3337 13.5013 18.3337H6.5013C3.83464 18.3337 1.66797 16.167 1.66797 13.5003V6.50033C1.66797 5.21845 2.17719 3.98907 3.08362 3.08264C3.99005 2.17622 5.21942 1.66699 6.5013 1.66699ZM6.33464 3.33366C5.53899 3.33366 4.77592 3.64973 4.21332 4.21234C3.65071 4.77495 3.33464 5.53801 3.33464 6.33366V13.667C3.33464 15.3253 4.6763 16.667 6.33464 16.667H13.668C14.4636 16.667 15.2267 16.3509 15.7893 15.7883C16.3519 15.2257 16.668 14.4626 16.668 13.667V6.33366C16.668 4.67533 15.3263 3.33366 13.668 3.33366H6.33464ZM14.3763 4.58366C14.6526 4.58366 14.9175 4.69341 15.1129 4.88876C15.3082 5.08411 15.418 5.34906 15.418 5.62533C15.418 5.90159 15.3082 6.16654 15.1129 6.3619C14.9175 6.55725 14.6526 6.66699 14.3763 6.66699C14.1 6.66699 13.8351 6.55725 13.6397 6.3619C13.4444 6.16654 13.3346 5.90159 13.3346 5.62533C13.3346 5.34906 13.4444 5.08411 13.6397 4.88876C13.8351 4.69341 14.1 4.58366 14.3763 4.58366ZM10.0013 5.83366C11.1064 5.83366 12.1662 6.27265 12.9476 7.05405C13.729 7.83545 14.168 8.89526 14.168 10.0003C14.168 11.1054 13.729 12.1652 12.9476 12.9466C12.1662 13.728 11.1064 14.167 10.0013 14.167C8.89623 14.167 7.83643 13.728 7.05502 12.9466C6.27362 12.1652 5.83464 11.1054 5.83464 10.0003C5.83464 8.89526 6.27362 7.83545 7.05502 7.05405C7.83643 6.27265 8.89623 5.83366 10.0013 5.83366ZM10.0013 7.50033C9.33826 7.50033 8.70238 7.76372 8.23353 8.23256C7.76469 8.7014 7.5013 9.33728 7.5013 10.0003C7.5013 10.6634 7.76469 11.2993 8.23353 11.7681C8.70238 12.2369 9.33826 12.5003 10.0013 12.5003C10.6643 12.5003 11.3002 12.2369 11.7691 11.7681C12.2379 11.2993 12.5013 10.6634 12.5013 10.0003C12.5013 9.33728 12.2379 8.7014 11.7691 8.23256C11.3002 7.76372 10.6643 7.50033 10.0013 7.50033Z" fill="#473AF0"/>
</svg>
