<svg width="20" height="19" viewBox="0 0 20 19" fill="none" xmlns="http://www.w3.org/2000/svg">
<path d="M10 18.3254C9.76667 18.3254 9.52933 18.2837 9.288 18.2004C9.04667 18.1171 8.834 17.9837 8.65 17.8004L6.925 16.2254C5.15833 14.6087 3.56233 13.0047 2.137 11.4134C0.711667 9.82206 -0.000666199 8.06772 4.67508e-07 6.15039C4.67508e-07 4.58372 0.525001 3.27539 1.575 2.22539C2.625 1.17539 3.93333 0.650391 5.5 0.650391C6.38333 0.650391 7.21667 0.837724 8 1.21239C8.78333 1.58706 9.45 2.09972 10 2.75039C10.55 2.10039 11.2167 1.58806 12 1.21339C12.7833 0.838724 13.6167 0.651057 14.5 0.650391C16.0667 0.650391 17.375 1.17539 18.425 2.22539C19.475 3.27539 20 4.58372 20 6.15039C20 8.06706 19.2917 9.82539 17.875 11.4254C16.4583 13.0254 14.85 14.6337 13.05 16.2504L11.35 17.8004C11.1667 17.9837 10.9543 18.1171 10.713 18.2004C10.4717 18.2837 10.234 18.3254 10 18.3254ZM9.05 4.75039C8.56667 4.06706 8.05 3.54606 7.5 3.18739C6.95 2.82872 6.28333 2.64972 5.5 2.65039C4.5 2.65039 3.66667 2.98372 3 3.65039C2.33333 4.31706 2 5.15039 2 6.15039C2 7.01706 2.30833 7.93806 2.925 8.91339C3.54167 9.88872 4.27933 10.8344 5.138 11.7504C5.99667 12.6664 6.88 13.5247 7.788 14.3254C8.696 15.1261 9.43333 15.7844 10 16.3004C10.5667 15.7837 11.3043 15.1254 12.213 14.3254C13.1217 13.5254 14.005 12.6671 14.863 11.7504C15.721 10.8337 16.4583 9.88806 17.075 8.91339C17.6917 7.93872 18 7.01772 18 6.15039C18 5.15039 17.6667 4.31706 17 3.65039C16.3333 2.98372 15.5 2.65039 14.5 2.65039C13.7167 2.65039 13.05 2.82972 12.5 3.18839C11.95 3.54706 11.4333 4.06772 10.95 4.75039C10.8333 4.91706 10.6917 5.04206 10.525 5.12539C10.3583 5.20872 10.1833 5.25039 10 5.25039C9.81667 5.25039 9.64167 5.20872 9.475 5.12539C9.30833 5.04206 9.16667 4.91706 9.05 4.75039Z" fill="#1E1E1E"/>
</svg>
