<svg width="20" height="16" viewBox="0 0 20 16" fill="none" xmlns="http://www.w3.org/2000/svg">
<path d="M18.5714 0.857422H1.42857C1.04969 0.857422 0.686328 1.00793 0.418419 1.27584C0.15051 1.54375 0 1.90711 0 2.28599V13.7146C0 14.0934 0.15051 14.4568 0.418419 14.7247C0.686328 14.9926 1.04969 15.1431 1.42857 15.1431H18.5714C18.9503 15.1431 19.3137 14.9926 19.5816 14.7247C19.8495 14.4568 20 14.0934 20 13.7146V2.28599C20 1.90711 19.8495 1.54375 19.5816 1.27584C19.3137 1.00793 18.9503 0.857422 18.5714 0.857422ZM17 2.28599L10 7.12885L3 2.28599H17ZM1.42857 13.7146V2.93599L9.59286 8.58599C9.71243 8.66894 9.85448 8.71339 10 8.71339C10.1455 8.71339 10.2876 8.66894 10.4071 8.58599L18.5714 2.93599V13.7146H1.42857Z" fill="white"/>
</svg>
