<svg width="21" height="21" viewBox="0 0 21 21" fill="none" xmlns="http://www.w3.org/2000/svg">
<path d="M7.51042 16.1276H7.09375C3.76042 16.1276 2.09375 15.2943 2.09375 11.1276V6.96094C2.09375 3.6276 3.76042 1.96094 7.09375 1.96094H13.7604C17.0938 1.96094 18.7604 3.6276 18.7604 6.96094V11.1276C18.7604 14.4609 17.0938 16.1276 13.7604 16.1276H13.3438C13.0854 16.1276 12.8354 16.2526 12.6771 16.4609L11.4271 18.1276C10.8771 18.8609 9.97708 18.8609 9.42708 18.1276L8.17708 16.4609C8.04375 16.2776 7.73542 16.1276 7.51042 16.1276Z" fill="#4B3DFE" stroke="#4B3DFE" stroke-width="1.5" stroke-miterlimit="10" stroke-linecap="round" stroke-linejoin="round"/>
<path d="M6.25781 6.96094H14.5911" stroke="white" stroke-width="1.5" stroke-linecap="round" stroke-linejoin="round"/>
<path d="M6.25781 11.127H11.2578" stroke="white" stroke-width="1.5" stroke-linecap="round" stroke-linejoin="round"/>
</svg>
