<svg width="21" height="21" viewBox="0 0 21 21" fill="none" xmlns="http://www.w3.org/2000/svg">
<path d="M7.51432 16.1276H7.09766C3.76432 16.1276 2.09766 15.2943 2.09766 11.1276V6.96094C2.09766 3.6276 3.76432 1.96094 7.09766 1.96094H13.7643C17.0977 1.96094 18.7643 3.6276 18.7643 6.96094V11.1276C18.7643 14.4609 17.0977 16.1276 13.7643 16.1276H13.3477C13.0893 16.1276 12.8393 16.2526 12.681 16.4609L11.431 18.1276C10.881 18.8609 9.98099 18.8609 9.43099 18.1276L8.18099 16.4609C8.04766 16.2776 7.73932 16.1276 7.51432 16.1276Z" stroke="#939496" stroke-width="1.5" stroke-miterlimit="10" stroke-linecap="round" stroke-linejoin="round"/>
<path d="M6.26172 6.96094H14.5951" stroke="#939496" stroke-width="1.5" stroke-linecap="round" stroke-linejoin="round"/>
<path d="M6.26172 11.127H11.2617" stroke="#939496" stroke-width="1.5" stroke-linecap="round" stroke-linejoin="round"/>
</svg>
