<svg width="20" height="20" viewBox="0 0 20 20" fill="none" xmlns="http://www.w3.org/2000/svg">
<path d="M15.8005 9.93379C15.8005 10.2005 16.0005 10.4671 16.3339 10.4671C16.6672 10.4671 16.8672 10.2671 16.8672 9.93379C16.8672 6.26712 13.8672 3.26712 10.2005 3.26712C9.93385 3.26712 9.66719 3.46712 9.66719 3.80046C9.66719 4.13379 9.86719 4.33379 10.2005 4.33379C13.2672 4.26712 15.8005 6.80046 15.8005 9.93379ZM9.66719 6.46712C9.66719 6.73379 9.86719 7.00046 10.2005 7.00046C11.8005 7.00046 13.0672 8.26712 13.0672 9.86712C13.0672 10.1338 13.2672 10.4005 13.6005 10.4005C13.9339 10.4005 14.1339 10.2005 14.1339 9.86712C14.1339 7.73379 12.4005 6.00046 10.2672 6.00046C9.86719 6.00046 9.66719 6.20046 9.66719 6.46712ZM10.1339 0.133789C9.86719 0.133789 9.60052 0.333789 9.60052 0.667122C9.60052 1.00046 9.80052 1.20046 10.1339 1.20046C14.9339 1.20046 18.8672 5.13379 18.8672 9.93379C18.8672 10.2005 19.0672 10.4671 19.4005 10.4671C19.7339 10.4671 19.9339 10.2671 19.9339 9.93379C19.8672 4.53379 15.5339 0.133789 10.1339 0.133789ZM12.9339 11.8005C12.8672 11.7338 12.7339 11.6671 12.6005 11.6671C12.4672 11.6671 12.3339 11.7338 12.2672 11.8005L11.2005 12.8671C10.8005 13.2671 10.1339 13.2671 9.73385 12.8671L7.26719 10.6005C6.86719 10.2005 6.86719 9.53379 7.26719 9.13379L8.46719 7.93379C8.66719 7.73379 8.66719 7.40046 8.46719 7.20046L3.53385 2.33379C3.46719 2.26712 3.33385 2.20046 3.20052 2.20046C3.06719 2.20046 2.93385 2.26712 2.86719 2.33379C2.80052 2.40046 1.26719 3.93379 0.933854 4.33379C0.000520863 5.26712 -0.132812 7.20046 0.533854 8.86712C2.00052 12.5338 6.86719 17.0005 10.9339 19.4671C11.2672 19.6671 12.0672 19.8671 12.8672 19.8671C13.6005 19.8671 14.6672 19.7338 15.6005 18.9338C16.4672 18.2005 17.4672 17.1338 17.5339 17.0671C17.7339 16.8671 17.7339 16.5338 17.5339 16.4005L12.9339 11.8005ZM14.9339 18.1338C14.2672 18.7338 13.4672 18.8005 12.8672 18.8005C12.1339 18.8005 11.5339 18.6005 11.4672 18.5338C6.86719 15.8005 2.66719 11.6005 1.46719 8.46712C0.933854 7.06712 1.13385 5.53379 1.60052 5.00046C1.86719 4.73379 2.66719 3.93379 3.20052 3.40046L7.33385 7.53379L6.46719 8.40046C5.66719 9.20046 5.66719 10.4671 6.46719 11.2671L8.93385 13.5338C9.66719 14.2671 11.0005 14.2671 11.8005 13.5338L12.5339 12.8005L16.4005 16.6671C16.0672 17.1338 15.4672 17.7338 14.9339 18.1338Z" fill="white"/>
</svg>
