<svg width="25" height="24" viewBox="0 0 25 24" fill="none" xmlns="http://www.w3.org/2000/svg">
<path d="M14.5805 3.50965L16.3405 7.02965C16.5805 7.51965 17.2205 7.98965 17.7605 8.07965L20.9505 8.60965C22.9905 8.94965 23.4705 10.4296 22.0005 11.8896L19.5205 14.3696C19.1005 14.7896 18.8705 15.5996 19.0005 16.1796L19.7105 19.2496C20.2705 21.6796 18.9805 22.6196 16.8305 21.3496L13.8405 19.5796C13.3005 19.2596 12.4105 19.2596 11.8605 19.5796L8.8705 21.3496C6.7305 22.6196 5.4305 21.6696 5.99049 19.2496L6.7005 16.1796C6.83049 15.5996 6.6005 14.7896 6.1805 14.3696L3.70049 11.8896C2.24049 10.4296 2.7105 8.94965 4.7505 8.60965L7.9405 8.07965C8.4705 7.98965 9.1105 7.51965 9.35049 7.02965L11.1105 3.50965C12.0705 1.59965 13.6305 1.59965 14.5805 3.50965Z" fill="#FF6B57" stroke="#FF6B57" stroke-width="1.5" stroke-linecap="round" stroke-linejoin="round"/>
</svg>
