<svg width="14" height="14" viewBox="0 0 14 14" fill="none" xmlns="http://www.w3.org/2000/svg">
<path fill-rule="evenodd" clip-rule="evenodd" d="M10.4163 0.642522C10.2784 0.422159 10.0752 0.250277 9.83507 0.150801C9.59489 0.0513257 9.32968 0.0292057 9.07634 0.0875213L7.27834 0.500521C7.09408 0.542873 6.90261 0.542873 6.71834 0.500521L4.92034 0.0875213C4.66701 0.0292057 4.40179 0.0513257 4.16162 0.150801C3.92144 0.250277 3.71826 0.422159 3.58034 0.642522L2.60034 2.20652C2.50034 2.36652 2.36534 2.50152 2.20534 2.60252L0.641344 3.58252C0.421362 3.72031 0.249732 3.92317 0.150278 4.16293C0.0508235 4.4027 0.0284783 4.66748 0.0863438 4.92052L0.499344 6.72052C0.541542 6.90447 0.541542 7.09558 0.499344 7.27952L0.0863438 9.07852C0.0282534 9.33171 0.0504861 9.59671 0.149951 9.83668C0.249416 10.0766 0.421172 10.2797 0.641344 10.4175L2.20534 11.3975C2.36534 11.4975 2.50034 11.6325 2.60134 11.7925L3.58134 13.3565C3.86334 13.8075 4.40134 14.0305 4.92034 13.9115L6.71834 13.4985C6.90261 13.4562 7.09408 13.4562 7.27834 13.4985L9.07734 13.9115C9.33053 13.9696 9.59553 13.9474 9.8355 13.8479C10.0755 13.7484 10.2785 13.5767 10.4163 13.3565L11.3963 11.7925C11.4963 11.6325 11.6313 11.4975 11.7913 11.3975L13.3563 10.4175C13.5765 10.2795 13.7482 10.0762 13.8475 9.83606C13.9468 9.59589 13.9688 9.33075 13.9103 9.07752L13.4983 7.27952C13.456 7.09526 13.456 6.90379 13.4983 6.71952L13.9113 4.92052C13.9695 4.66744 13.9474 4.40251 13.8482 4.16255C13.7489 3.92259 13.5773 3.71951 13.3573 3.58152L11.7923 2.60152C11.6326 2.50134 11.4975 2.3663 11.3973 2.20652L10.4163 0.642522ZM9.91334 4.76952C9.97519 4.65579 9.99052 4.5225 9.95609 4.39769C9.92167 4.27289 9.84018 4.16631 9.72876 4.10036C9.61735 4.03442 9.4847 4.01427 9.35873 4.04414C9.23276 4.07401 9.12329 4.15158 9.05334 4.26052L6.43834 8.68652L4.85934 7.17452C4.8125 7.12642 4.75645 7.08825 4.69453 7.06228C4.63262 7.03632 4.56611 7.02308 4.49897 7.02338C4.43183 7.02367 4.36544 7.03748 4.30375 7.06399C4.24206 7.09049 4.18635 7.12915 4.13993 7.17766C4.0935 7.22616 4.05733 7.28352 4.03355 7.34631C4.00977 7.4091 3.99889 7.47603 4.00154 7.54312C4.00419 7.61021 4.02033 7.67608 4.04899 7.73679C4.07764 7.79751 4.11824 7.85183 4.16834 7.89652L6.20234 9.84552C6.25678 9.89757 6.32228 9.93666 6.39394 9.95985C6.4656 9.98304 6.54157 9.98974 6.61619 9.97945C6.6908 9.96916 6.76213 9.94215 6.82484 9.90043C6.88755 9.85871 6.94002 9.80336 6.97834 9.73852L9.91334 4.76952Z" fill="#FF6B57"/>
</svg>
